<?xml version="1.0" encoding="UTF-8" standalone="no"?>
<!DOCTYPE svg PUBLIC "-//W3C//DTD SVG 1.1//EN" "http://www.w3.org/Graphics/SVG/1.1/DTD/svg11.dtd">
<svg width="100%" height="100%" viewBox="0 0 313 280" version="1.1" xmlns="http://www.w3.org/2000/svg" xmlns:xlink="http://www.w3.org/1999/xlink" xml:space="preserve" xmlns:serif="http://www.serif.com/" style="fill-rule:evenodd;clip-rule:evenodd;stroke-linejoin:round;stroke-miterlimit:1.41421;">
    <g transform="matrix(3.125,0,0,3.125,0,0)">
        <g transform="matrix(1,0,0,1,0.000306263,-5.33)">
            <path d="M44.91,39.42L55.09,39.42L55.09,63.08L44.91,63.08L44.91,39.42ZM50,78.42C46.944,78.42 44.43,75.906 44.43,72.85C44.43,69.794 46.944,67.28 50,67.28C53.056,67.28 55.57,69.794 55.57,72.85C55.57,72.853 55.57,72.857 55.57,72.86C55.57,75.916 53.056,78.43 50,78.43C50,78.43 50,78.43 50,78.43L50,78.42Z" style="fill-rule:nonzero;"/>
            <path d="M97.92,79.3L58.92,11.68C56.43,7.44 53.22,5.33 50,5.33C46.78,5.33 43.57,7.44 41.13,11.67L2.08,79.3C-2.8,87.75 1.2,94.67 11,94.67L89,94.67C98.8,94.67 102.8,87.75 97.92,79.3ZM92.53,86.43C92.41,86.59 91.42,87.23 89.05,87.23L11,87.23C8.63,87.23 7.64,86.59 7.52,86.44C7.4,86.29 7.38,85.08 8.52,83.02L47.52,15.4C48.71,13.35 49.76,12.81 49.94,12.78C50.12,12.75 51.19,13.34 52.37,15.4L91.47,83C92.66,85.07 92.6,86.25 92.53,86.42L92.53,86.43Z" style="fill-rule:nonzero;"/>
            <circle cx="50" cy="72.86" r="5.57"/>
            <rect x="44.91" y="39.42" width="10.18" height="23.66"/>
        </g>
    </g>
</svg>
