<?xml version="1.0" encoding="UTF-8" standalone="no"?>
<!DOCTYPE svg PUBLIC "-//W3C//DTD SVG 1.1//EN" "http://www.w3.org/Graphics/SVG/1.1/DTD/svg11.dtd">
<svg width="100%" height="100%" viewBox="0 0 190 297" version="1.1" xmlns="http://www.w3.org/2000/svg" xmlns:xlink="http://www.w3.org/1999/xlink" xml:space="preserve" xmlns:serif="http://www.serif.com/" style="fill-rule:evenodd;clip-rule:evenodd;stroke-linejoin:round;stroke-miterlimit:1.41421;">
    <g transform="matrix(3.125,0,0,3.125,0,0)">
        <g transform="matrix(1,0,0,1,929.2,-953.5)">
            <path d="M-880.5,999.1L-880.5,998.9C-874.7,995.9 -871.5,990.2 -871.5,983.3C-871.5,975.1 -876,969 -882.6,966.4C-885.6,965.2 -888.5,964.7 -892.3,964.5L-892.3,954.2C-892.3,953.8 -892.6,953.5 -893,953.5L-898.8,953.5C-899.2,953.5 -899.5,953.8 -899.5,954.2L-899.5,964.4L-907.2,964.4L-907.2,954.2C-907.2,953.8 -907.5,953.5 -907.9,953.5L-913.7,953.5C-914.1,953.5 -914.4,953.8 -914.4,954.2L-914.4,964.4L-927.7,964.4C-928.5,964.4 -929.2,965 -929.2,965.9L-929.2,973.2C-929.2,974 -928.6,974.7 -927.7,974.7L-924.5,974.7C-922.2,974.7 -920.4,976.6 -920.4,978.8L-920.4,1023.3C-920.4,1025.6 -922.3,1027.4 -924.5,1027.4L-927.7,1027.4C-928.5,1027.4 -929.2,1028 -929.2,1028.9L-929.2,1036.1C-929.2,1036.9 -928.6,1037.6 -927.7,1037.6L-914.4,1037.6L-914.4,1047.8C-914.4,1048.2 -914.1,1048.5 -913.7,1048.5L-907.9,1048.5C-907.5,1048.5 -907.2,1048.2 -907.2,1047.8L-907.2,1037.6L-899.5,1037.6L-899.5,1047.8C-899.5,1048.2 -899.2,1048.5 -898.8,1048.5L-893,1048.5C-892.6,1048.5 -892.3,1048.2 -892.3,1047.8L-892.3,1037.5C-889,1037.5 -886.2,1037.2 -883.1,1036.3C-875.2,1033.8 -868.6,1026.6 -868.6,1016.4C-868.7,1008.7 -872.4,1001.6 -880.5,999.1ZM-907.1,975.3L-895.8,975.3C-893.2,975.3 -891.1,975.7 -889.5,976.4C-886.6,977.9 -885.3,981.1 -885.3,984.7C-885.3,990.4 -888.5,994.3 -894.3,994.3L-907.2,994.3L-907.2,975.3L-907.1,975.3ZM-888.2,1025.9C-889.7,1026.6 -891.7,1026.7 -893.4,1026.7L-907,1026.7L-907,1005L-892.9,1005C-886.2,1005 -882.3,1009.3 -882.3,1015.6C-882.4,1020.2 -884.5,1024.4 -888.2,1025.9Z" style="fill-rule:nonzero;"/>
        </g>
    </g>
</svg>
