<?xml version="1.0" encoding="UTF-8" standalone="no"?>
<!DOCTYPE svg PUBLIC "-//W3C//DTD SVG 1.1//EN" "http://www.w3.org/Graphics/SVG/1.1/DTD/svg11.dtd">
<svg width="100%" height="100%" viewBox="0 0 242 242" version="1.1" xmlns="http://www.w3.org/2000/svg" xmlns:xlink="http://www.w3.org/1999/xlink" xml:space="preserve" xmlns:serif="http://www.serif.com/" style="fill-rule:evenodd;clip-rule:evenodd;stroke-linejoin:round;stroke-miterlimit:1.41421;">
    <g transform="matrix(3.125,0,0,3.125,0,0)">
        <g transform="matrix(1,0,0,1,-11.334,-11.333)">
            <path d="M80.148,41.482L58.518,41.482L58.518,19.851C58.518,15.147 54.705,11.333 50,11.333C45.295,11.333 41.482,15.146 41.482,19.851L41.482,41.483L19.852,41.483C15.148,41.483 11.334,45.296 11.334,50.001C11.334,54.706 15.147,58.519 19.852,58.519L41.483,58.519L41.483,80.151C41.483,84.855 45.296,88.669 50.001,88.669C54.706,88.669 58.519,84.856 58.519,80.151L58.519,58.518L80.15,58.518C84.854,58.518 88.668,54.705 88.668,50C88.668,45.295 84.853,41.482 80.148,41.482Z" style="fill:white;fill-rule:nonzero;"/>
        </g>
    </g>
</svg>
